<svg xmlns="http://www.w3.org/2000/svg" viewBox="0 0 300 100"><g fill-rule="nonzero"><path d="M44.36 10.604c1.73-.805 4.56-.805 6.288 0l4.83 2.248c1.73.804 1.835 4.452-3.104 3.9 0 0-1.623-.146-1.895 1.86-.27 1.24 1.08 1.86 1.08 1.86 5.886 1.978 8.575-1.865 8.575-1.865 1.346-1.348 3.864-1.793 5.594-.988l10.956 5.097c1.73.805 1.76 2.18.066 3.06l-1.928 1c-1.693.878-3.92.874-4.946-.01l-1.054-.554c-2.49-1.307-5.314-1.63-8.172-.938C53.123 27.1 46.9 26.78 44.41 24.438c-1.256-1.182-1.644-2.98-1.188-5.497.214-1.186-.575-2.32-1.763-2.535s-2.323.574-2.538 1.758c-.908 5.016.854 7.907 2.495 9.45 2.072 1.95 5.21 3.018 9.32 3.177 4.053.157 8.19-.608 10.947-1.277 2.345-.57 2.7-.402 2.7-.402 1.736.79 1.77 2.153.077 3.032L50.585 39.34c-1.693.88-4.464.88-6.156 0l-16.182-8.388c-1.694-.878-2.466-2.288-.73-4.022s5.422-.545 6.737-.467c0 0 1.952.262 2.212-1.57s-1.512-2.268-1.512-2.268c-1.186-.3-4.306-1-6.75-.4-2.046.503-4.416 2.732-4.416 2.732-1.387 1.307-3.89 1.666-5.563.8s-1.626-2.235.103-3.04l26.03-12.114z" fill="#fffefe"/><path d="M13.003 31.245c-.072-1.93 1.268-2.782 2.98-1.892l1.86.968c1.712.89 3.216 1.79 3.34 2.002-.007-.01.653.922.873 3.01.212 2.008.048 5.493-1.928 10.683-2.637 6.922-.507 11.565 1.743 14.242 2.387 2.836 5.41 4.028 5.536 4.076a2.21 2.21 0 0 0 .799.15c.888 0 1.726-.537 2.066-1.414a2.21 2.21 0 0 0-1.26-2.86c-.022-.01-2.2-.9-3.853-2.92-2.077-2.552-2.38-5.814-.9-9.696 2.177-5.718 2.184-9.283 2.184-9.283.003-1.933 1.408-2.785 3.12-1.894l13.324 6.93c1.712.89 3.113 3.2 3.113 5.133v5.49c0 1.933-1.25 2.884-2.777 2.113l-1.14-1.976c-2.974-5.155-8.42-5.47-10.885-4.916-1.19.267-1.94 1.45-1.673 2.645a2.21 2.21 0 0 0 2.642 1.675c.038-.01 3.98-.845 6.088 2.812 2.252 3.903 4.418 4.634 4.418 4.634 1.83.616 3.325 2.7 3.325 4.634v13.305c0 1.932-1.337 2.672-2.972 1.644l-5.094-3.203c-1.634-1.027-.778-1.792-.27-3.57 0 0 .753-1.696 1.163-5.154.144-1.214-.723-2.316-1.934-2.46a2.21 2.21 0 0 0-2.455 1.936c-.414 3.47-2 5.898-6.375 3.042l-10.908-6.86c-1.634-1.027-3.03-3.448-3.103-5.38l-1.047-27.645z" fill="#c0bcbc"/><path d="M81.948 58.9c-.073 1.93-1.47 4.35-3.104 5.38l-5.05 3.175c-1.634 1.027-4.268.966-5.852-.136 0 0-.563-.392-1.385-2.172-.674-1.464-.806-2.994-.358-4.2.425-1.146-.16-2.42-1.304-2.846a2.21 2.21 0 0 0-2.84 1.305c-.855 2.303-.675 5.073.5 7.6.904 1.956 1.535 2.547 1.535 2.547 1.407 1.322 1.222 3.244-.41 4.27l-10.696 6.726c-1.634 1.027-2.97.286-2.97-1.645V65.765c0-1.933.44-3.602.973-3.708l.53-.183c1.95-.67 4.644-2.336 6.423-6.46 1.342-3.11 4.06-5.107 7.098-5.21 2.7-.088 5.02 1.34 6.354 3.93a2.21 2.21 0 0 0 2.977.953c1.085-.56 1.5-1.896.95-2.982-2.116-4.112-6.023-6.475-10.434-6.327-4.762.164-8.978 3.182-11.005 7.88l-1.128 2.618c-1.506.793-2.74-.14-2.74-2.07V48.48c0-1.932 1.4-4.242 3.114-5.132l14.76-7.678c1.712-.89 3.467-.078 3.897 1.805 0 0 .185.8-.58 1.567-.864.864-.864 2.266 0 3.13a2.2 2.2 0 0 0 1.563.648c.566 0 1.13-.216 1.564-.648 2.292-2.296 1.336-6.73 1.336-6.73-.407-1.89.66-4.163 2.372-5.054l1.99-1.035c1.712-.89 3.053-.04 2.98 1.892L81.948 58.9z" fill="#f1ecec"/><path d="M46.97 93.972l-.424-.072-.614-.182-.472-.21-.317-.183L9.836 71.087c-4.486-2.826-4.82-3.96-4.932-4.333-.28-.954-.42-4.335-.445-5.003L3.143 27.04 3 23.027l.034-.438.057-.354.162-.593.24-.556.256-.435.34-.452.46-.458.387-.297.274-.187.644-.3 36.39-17.02C42.666 1.73 46.407 0 47.76 0c.172 0 .34.018.502.053.853.184 3.895 1.595 4.495 1.876L86.056 17.5l3.624 1.706.388.24.264.195.392.354c.242.26.344.39.44.527l.263.415.26.545c.097.255.146.42.187.587l.09.516c.005.04.017.187.035.44l-.146 4.013-1.313 34.71c-.203 5.314-1.015 6.17-1.28 6.45-.68.718-3.532 2.53-4.097 2.885l-7 4.4-2.528 1.623-1.31.827-3.307 2.05-17.993 11.334-3.277 2.06-.577.283c-.235.09-.393.142-.552.183l-.558.108-.374.03c-.366.005-.54-.007-.716-.027zm.484-6.516l.05.003.076-.015 3.082-1.934 17.313-10.907 3.416-2.108.982-.632 2.477-1.59 6.737-4.242 2.904-1.946c.143-.722.327-2.285.383-3.76l1.4-37.034-.023-.08-.022-.042-.066-.06-3.274-1.537L50.85 6.587l-3.206-1.41c-.668.206-2.1.756-3.5 1.41L8.774 23.152l-.058.138.134 3.632 1.266 33.4.23 3.495c.553.483 1.81 1.426 3.057 2.21l34.05 21.426z" fill="#8cbdd3"/></g><g fill="#8cbdd3"><path d="M102.96 41h4.608v26.56h-4.608V41zm14.312 27V41.44h4.608v3.072c.832-1.088 3.2-3.712 7.616-3.712 3.136 0 6.016 1.28 7.616 3.648 1.344 1.984 1.536 4.16 1.536 7.104V68h-4.608V51.68c0-1.6-.128-3.456-1.216-4.864-.896-1.152-2.304-1.92-4.352-1.92-1.6 0-3.328.448-4.672 2.048-1.792 2.112-1.92 5.248-1.92 7.168V68h-4.608zm50.88-24.64v5.504c-2.432-3.072-5.952-3.968-8.32-3.968-4.928 0-9.408 3.456-9.408 9.92s4.608 9.856 9.344 9.856c2.752 0 6.144-1.216 8.576-4.16v5.504c-2.88 2.112-5.952 2.752-8.448 2.752-8.256 0-14.208-5.888-14.208-13.888 0-8.128 6.016-14.08 14.208-14.08 4.224 0 6.976 1.664 8.256 2.56zm11.84-1.92v15.488c0 1.856 0 4.032 1.28 5.696.704.896 2.112 2.048 4.672 2.048s3.968-1.152 4.672-2.048c1.28-1.664 1.28-3.84 1.28-5.696V41.44h4.608v16c0 3.264-.32 5.696-2.432 8-2.368 2.496-5.504 3.328-8.128 3.328s-5.76-.832-8.128-3.328c-2.112-2.304-2.432-4.736-2.432-8v-16h4.608zm29.824 22.848V68h-4.608V27h4.608v18.152c3.136-3.904 7.168-4.352 9.088-4.352 8.32 0 12.928 6.912 12.928 14.08 0 7.296-4.672 13.888-12.736 13.888-4.288 0-7.296-1.92-9.28-4.48zm8.64.384c5.376 0 8.64-4.48 8.64-9.792 0-6.528-4.416-9.984-8.704-9.984s-8.832 3.52-8.832 9.92c0 5.44 3.456 9.856 8.896 9.856zM238.96 41h4.608v26.56h-4.608V41zm32.936 18.104l3.84 2.112c-.768 1.472-1.92 3.072-3.264 4.288-2.432 2.176-5.44 3.264-8.832 3.264-6.4 0-13.12-4.032-13.12-13.888 0-7.936 4.864-14.08 12.864-14.08 5.184 0 8.448 2.56 10.048 4.864 1.664 2.368 2.624 6.464 2.496 9.984h-20.672c.064 5.504 3.84 9.024 8.448 9.024 2.176 0 3.904-.64 5.44-1.92 1.216-1.024 2.176-2.368 2.752-3.648zm-16.32-7.296h15.616c-.768-4.16-3.904-6.912-7.808-6.912s-7.104 2.944-7.808 6.912z"/><rect transform="matrix(.707107 .707107 -.707107 .707107 105.949748 24.535534)" x="1.243" y="2.243" width="6" height="6" rx="1"/><rect transform="matrix(.707107 .707107 -.707107 .707107 145.540585 -71.530483)" x="137" y="2" width="6" height="6" rx="1"/></g></svg>
